<svg width="15" height="15" viewBox="0 0 15 15" fill="none" xmlns="http://www.w3.org/2000/svg">
<g id="seedling-solid 1" clip-path="url(#clip0_7_152)">
<path id="Vector" d="M15 0.9375C15 4.26562 12.5215 7.0166 9.31055 7.44141C9.10254 5.87695 8.41406 4.46484 7.39746 3.36035C8.51953 1.35645 10.6641 0 13.125 0H14.0625C14.5811 0 15 0.418945 15 0.9375ZM0 2.8125C0 2.29395 0.418945 1.875 0.9375 1.875H1.875C5.49902 1.875 8.4375 4.81348 8.4375 8.4375V9.375V14.0625C8.4375 14.5811 8.01855 15 7.5 15C6.98145 15 6.5625 14.5811 6.5625 14.0625V9.375C2.93848 9.375 0 6.43652 0 2.8125Z" fill="black"/>
</g>
<defs>
<clipPath id="clip0_7_152">
<rect width="15" height="15" fill="white"/>
</clipPath>
</defs>
</svg>
